<?xml version="1.0" encoding="UTF-8" standalone="no"?>
<!-- Created with Inkscape (http://www.inkscape.org/) -->

<svg
   xmlns:dc="http://purl.org/dc/elements/1.1/"
   xmlns:cc="http://creativecommons.org/ns#"
   xmlns:rdf="http://www.w3.org/1999/02/22-rdf-syntax-ns#"
   xmlns:svg="http://www.w3.org/2000/svg"
   xmlns="http://www.w3.org/2000/svg"
   xmlns:sodipodi="http://sodipodi.sourceforge.net/DTD/sodipodi-0.dtd"
   xmlns:inkscape="http://www.inkscape.org/namespaces/inkscape"
   version="1.1"
   id="svg6698"
   width="224.64"
   height="68.800003"
   viewBox="0 0 224.64 68.800003"
   sodipodi:docname="logo_qd_grasp_5_mini.svg"
   inkscape:version="0.92.5 (2060ec1f9f, 2020-04-08)">
  <metadata
     id="metadata6704">
    <rdf:RDF>
      <cc:Work
         rdf:about="">
        <dc:format>image/svg+xml</dc:format>
        <dc:type
           rdf:resource="http://purl.org/dc/dcmitype/StillImage" />
        <dc:title></dc:title>
      </cc:Work>
    </rdf:RDF>
  </metadata>
  <defs
     id="defs6702" />
  <sodipodi:namedview
     pagecolor="#ffffff"
     bordercolor="#666666"
     borderopacity="1"
     objecttolerance="10"
     gridtolerance="10"
     guidetolerance="10"
     inkscape:pageopacity="0"
     inkscape:pageshadow="2"
     inkscape:window-width="1848"
     inkscape:window-height="1016"
     id="namedview6700"
     showgrid="false"
     inkscape:zoom="4"
     inkscape:cx="82.238304"
     inkscape:cy="19.085434"
     inkscape:window-x="72"
     inkscape:window-y="27"
     inkscape:window-maximized="1"
     inkscape:current-layer="svg6698" />
  <path
     style="fill:#1d2769;fill-opacity:1;stroke:none;stroke-width:0.32390496;stroke-opacity:1"
     d="M 30.283203 19.929688 C 26.601293 19.942618 22.914165 21.254674 20.320312 23.865234 C 17.40378 26.80056 16.06416 30.845351 16.34375 35.863281 C 16.745785 43.078797 20.512302 47.659033 27.277344 49.154297 C 27.910687 49.294277 28.34904 49.80109 29.007812 51.15625 C 30.012977 53.223968 31.550404 54.504207 34.236328 55.515625 C 35.838124 56.118787 39.643548 56.810987 40.765625 56.703125 C 41.031225 56.677635 41.440883 55.837302 41.759766 54.664062 L 42.300781 52.669922 L 40.337891 52.453125 C 39.25847 52.33448 37.837524 52.09563 37.179688 51.921875 C 35.861317 51.573634 34.017578 50.176098 34.017578 49.525391 C 34.017578 49.297147 34.889319 48.791484 35.955078 48.400391 C 38.611278 47.425652 41.443021 44.763569 42.746094 42.015625 C 45.568305 36.064113 44.458126 28.06357 40.21875 23.796875 C 37.642939 21.204465 33.965113 19.916757 30.283203 19.929688 z M 29.867188 25.287109 C 32.736171 25.127435 35.100203 26.516786 36.517578 29.240234 C 38.977483 33.966871 37.527279 40.908986 33.675781 42.839844 C 30.62866 44.367441 27.290627 43.908982 24.990234 41.648438 C 23.056237 39.747942 22.348713 37.429677 22.550781 33.646484 C 22.799357 28.992524 24.857428 26.208062 28.607422 25.451172 C 29.036537 25.364559 29.457333 25.30992 29.867188 25.287109 z "
     id="path9698" />
  <path
     style="fill:#1d2769;fill-opacity:1;stroke:none;stroke-width:0.33294612;stroke-opacity:1"
     d="m 180.30096,48.869567 c 2.08016,-0.616156 4.38182,-2.526208 5.19815,-4.313685 0.97245,-2.129345 0.849,-5.335887 -0.2888,-7.502099 -1.18577,-2.257524 -3.04746,-3.532566 -7.80721,-5.347052 -2.03072,-0.774136 -4.12821,-1.812598 -4.66109,-2.307673 -1.2518,-1.163019 -1.31892,-2.848258 -0.16654,-4.180733 0.73197,-0.846344 1.03639,-0.938278 3.47077,-1.048237 2.38823,-0.107861 4.57784,0.269702 6.61164,1.140078 0.32655,0.139749 1.80165,-3.205794 1.80165,-4.086163 0,-0.183828 -0.93896,-0.639451 -2.08658,-1.01248 -7.09831,-2.307299 -14.12056,-0.36231 -16.15896,4.475638 -0.67146,1.593606 -0.57432,4.861275 0.18825,6.3327 1.28319,2.475986 2.92829,3.6077 8.09483,5.568627 1.66266,0.631056 3.4378,1.441125 3.94475,1.800157 2.10268,1.489116 2.10154,4.166393 -0.002,5.594164 -1.07994,0.732879 -1.39323,0.775473 -4.66317,0.634034 -2.42517,-0.104905 -4.04019,-0.358875 -5.24062,-0.824118 l -1.73516,-0.67249 -0.68527,2.018195 c -0.37695,1.109996 -0.68533,2.127851 -0.68533,2.261892 0,0.382503 3.61254,1.629456 5.659,1.953342 2.4386,0.385947 7.10213,0.14088 9.21202,-0.484097 z"
     id="path9690"
     inkscape:connector-curvature="0" />
  <path
     style="fill:#1d2769;fill-opacity:1;stroke:none;stroke-width:0.3308309;stroke-opacity:1"
     d="M 55.865234 19.925781 C 53.400912 19.916581 50.52618 20.027286 49.476562 20.169922 L 47.568359 20.429688 L 47.568359 34.5625 L 47.568359 48.695312 L 49.310547 48.882812 C 50.268894 48.98666 51.575946 49.132957 52.214844 49.207031 C 54.59568 49.48309 60.396936 49.071162 62.542969 48.474609 C 65.23073 47.727462 67.253531 46.582485 69.070312 44.777344 C 74.141611 39.738508 74.00489 28.706633 68.8125 23.880859 C 65.649665 20.94134 62.406909 19.949381 55.865234 19.925781 z M 56.521484 24.962891 C 61.385168 24.962891 64.208918 26.469093 65.677734 29.845703 C 66.264294 31.194123 66.403816 32.087074 66.392578 34.402344 C 66.370368 38.981484 65.195977 41.351644 62.117188 43.027344 C 60.63841 43.832194 59.989871 43.97304 57.199219 44.09375 C 55.431027 44.17025 53.876141 44.120715 53.744141 43.984375 C 53.459469 43.690445 53.417087 26.20396 53.699219 25.46875 C 53.854515 25.06405 54.420579 24.962891 56.521484 24.962891 z "
     id="path9686" />
  <path
     style="fill:#1d2769;fill-opacity:1;stroke:none;stroke-width:0.33652315;stroke-opacity:1"
     d="m 94.745765,47.491481 c 0,-0.88991 -0.188234,-1.18795 0.768604,-2.05313 l 1.363648,-1.37 v -3.52444 c 0,-4.36789 0.196604,-5.59045 2.833452,-6.70666 1.988291,-0.84168 2.350671,-1.83365 0.669851,-1.83365 -0.574783,0 -0.99859,0.07103 -1.508955,-0.139232 -1.996922,-0.170263 -1.765544,-1.847395 -1.936559,-9.196304 -0.162354,-6.976719 -0.130749,-6.936941 -2.100119,-7.07168 -0.51034,0.17708 -1.433227,1.105824 -1.238617,8.121326 l 0.220971,7.96577 H 92.940583 91.99683 l 0.0142,-5.96546 c -0.08455,-5.23864 -0.74508,-6.00778 -1.280394,-6.31281 -1.471395,-0.13783 -1.794082,0.427865 -1.936672,6.37348 l -0.141611,5.90479 h -0.873014 -0.716762 l -0.03125,-3.33383 c -0.03517,-3.751515 -0.617452,-4.34617 -1.555862,-4.34617 -1.12442,0 -1.390278,1.08429 -1.387512,5.65896 0.0041,6.75268 0.738601,9.7433 3.359673,13.67909 1.00683,1.51184 1.238347,2.18129 1.238347,3.58072 v 1.72123 h 2.654247 3.339255 z"
     id="path9678"
     inkscape:connector-curvature="0"
     sodipodi:nodetypes="cccscscscscccccscccssccscccc" />
  <path
     style="fill:#1d2769;fill-opacity:1;stroke:none;stroke-width:0.28826937;stroke-opacity:1"
     d="m 96.831435,49.109149 c -0.328044,-0.340816 -0.204069,-1.72654 0.206677,-2.310152 0.309636,-0.439947 0.753649,-0.563457 2.050396,-0.570362 l 1.655172,-0.0092 0.0855,1.542611 0.0855,1.542611 h -1.947332 c -1.071035,0 -2.032183,-0.08815 -2.135879,-0.195893 z"
     id="path9676"
     inkscape:connector-curvature="0" />
  <path
     style="fill:#1d2769;fill-opacity:1;stroke:none;stroke-width:0.33536258;stroke-opacity:1"
     d="M 117.29883 19.609375 C 115.53553 19.639957 113.65631 19.785825 111.68945 20.050781 L 110.25781 20.244141 L 110.25781 34.728516 L 110.25781 49.214844 L 113.11328 49.214844 L 115.96875 49.214844 L 116.06055 43.789062 L 116.15234 38.363281 L 118.32031 38.363281 L 120.48828 38.363281 L 122.07422 40.671875 C 122.94705 41.940745 124.46512 44.380581 125.44727 46.095703 L 127.23242 49.214844 L 130.55273 49.214844 L 133.87305 49.214844 L 132.44141 46.488281 C 131.6543 44.988673 130.05436 42.346173 128.88672 40.615234 C 127.71907 38.884285 126.76367 37.346538 126.76367 37.197266 C 126.76367 37.047993 127.4079 36.548898 128.19531 36.089844 C 131.09595 34.398824 132.15554 32.485365 132.15039 28.943359 C 132.14639 26.153126 131.09377 23.677427 129.34766 22.357422 C 126.84362 20.464429 122.58872 19.517628 117.29883 19.609375 z M 116.44727 24.947266 L 119.53906 25.181641 C 121.46124 25.327282 123.08323 25.673981 123.82422 26.097656 C 125.97478 27.327283 126.31755 30.715863 124.44531 32.232422 C 124.02109 32.57606 122.81109 33.037398 121.75586 33.259766 C 120.70062 33.482134 119.07487 33.664062 118.14258 33.664062 L 116.44727 33.664062 L 116.44727 29.306641 L 116.44727 24.947266 z "
     id="path9670" />
  <path
     style="fill:#1d2769;fill-opacity:1;stroke:none;stroke-width:0.33204064;stroke-opacity:1"
     d="M 146.99023 19.933594 L 145.45508 23.214844 C 142.77311 28.938476 139.93492 35.982376 136.68945 44.978516 L 135.22461 49.039062 L 138.26367 48.945312 L 141.30273 48.849609 L 142.38281 45.875 L 143.46484 42.900391 L 149.74805 42.900391 L 156.0332 42.900391 L 157.09766 45.875 L 158.16016 48.849609 L 161.20312 48.945312 C 163.11471 49.005003 164.24414 48.913459 164.24414 48.701172 C 164.24414 47.583255 158.18433 31.995965 154.82812 24.478516 L 152.80078 19.933594 L 149.89648 19.933594 L 146.99023 19.933594 z M 149.63281 26.724609 C 149.85533 26.99116 153.83594 37.31801 153.83594 37.628906 C 153.83594 37.849478 152.1106 38 149.61133 38 C 147.17677 38 145.38672 37.846836 145.38672 37.636719 C 145.38672 37.220515 149.52233 26.592264 149.63281 26.724609 z "
     id="path9662" />
  <path
     style="fill:#1d2769;fill-opacity:1;stroke:none;stroke-width:0.32979205;stroke-opacity:1"
     d="M 198.15234 19.824219 C 196.0327 19.788818 193.66277 19.935657 191.04492 20.265625 L 189.47461 20.464844 L 189.47461 34.728516 L 189.47461 48.994141 L 192.27539 48.994141 L 195.07812 48.994141 L 195.16797 44.142578 L 195.25977 39.291016 L 198.73047 39.044922 C 206.09051 38.522087 209.58972 36.577778 210.83398 32.320312 C 211.50541 30.022915 211.2898 26.904455 210.33008 25.033203 C 208.60857 21.676633 204.51127 19.93042 198.15234 19.824219 z M 195.85742 25.296875 L 197.57422 25.296875 C 200.57724 25.296875 202.68322 25.916548 203.69531 27.097656 C 204.48528 28.01965 204.5853 28.392852 204.44141 29.863281 C 204.23601 31.962431 203.2485 32.912152 200.7168 33.445312 C 199.74258 33.65048 198.25199 33.818359 197.40234 33.818359 L 195.85742 33.818359 L 195.85742 29.556641 L 195.85742 25.296875 z "
     id="path9654" />
  <path
     style="fill:#ef342b;fill-opacity:1;stroke:none;stroke-width:0.37563142;stroke-opacity:1"
     d="m 102.5134,43.613058 c 0.79099,-0.68992 1.74972,-1.766876 2.1305,-2.393247 l 0.69229,-1.138848 h -1.99024 -1.99025 l 0.19995,-2.393235 c 0.17844,-2.135814 0.12524,-2.393236 -0.49455,-2.393236 -0.38198,0 -1.05192,0.436558 -1.488766,0.970123 -0.687497,0.839739 -0.794254,1.483093 -0.794254,4.786473 v 3.816348 h 1.148568 c 0.769742,0 1.622882,-0.413708 2.586752,-1.254378 z"
     id="path9646"
     inkscape:connector-curvature="0" />
  <path
     style="fill:#1d2769;fill-opacity:1;stroke:none;stroke-width:0.31999999;stroke-opacity:1"
     d="m 103.01264,38.204611 c -0.12545,-0.12544 -0.22809,-2.47604 -0.22809,-5.22354 0,-5.45066 0.26453,-6.41787 1.75529,-6.41787 1.63855,0 1.7875,0.55893 1.69231,6.35045 l -0.0876,5.32955 -1.45191,0.0948 c -0.79856,0.0521 -1.55456,-0.008 -1.68,-0.13334 z"
     id="path9644"
     inkscape:connector-curvature="0" />
  <path
     style="fill:#1d2769;fill-opacity:1;stroke:none;stroke-width:0.31999999;stroke-opacity:1"
     d="m 99.088742,29.703382 c -0.192049,-0.07904 -0.474828,-0.830074 -0.474828,-5.932204 0,-4.48609 -0.215409,-5.839707 0.188785,-6.416777 0.537811,-0.76783 1.241271,-0.686049 2.226111,-0.158969 0.57844,0.30957 0.55267,0.462145 0.55267,6.116685 0,5.88976 0.0722,6.490846 -0.74513,6.569497 -1.057121,-0.0057 -0.937533,0.155174 -1.747608,-0.178232 z"
     id="path9640"
     inkscape:connector-curvature="0"
     sodipodi:nodetypes="ssccscs" />
</svg>
